<svg xmlns="http://www.w3.org/2000/svg" viewBox="0 0 48 48" fill="none">
  <!-- Nexo Logo - Stylized Knot -->
  <path
    d="M24 8C24 8 16 12 16 20C16 20 20 24 24 24C28 24 32 20 32 20C32 12 24 8 24 8Z"
    stroke="#214A73"
    stroke-width="3"
    stroke-linecap="round"
    stroke-linejoin="round"
    fill="none"
  />
  <path
    d="M24 40C24 40 32 36 32 28C32 28 28 24 24 24C20 24 16 28 16 28C16 36 24 40 24 40Z"
    stroke="#214A73"
    stroke-width="3"
    stroke-linecap="round"
    stroke-linejoin="round"
    fill="none"
  />
  <path
    d="M8 24C8 24 12 16 20 16C20 16 24 20 24 24C24 28 20 32 20 32C12 32 8 24 8 24Z"
    stroke="#214A73"
    stroke-width="3"
    stroke-linecap="round"
    stroke-linejoin="round"
    fill="none"
  />
  <path
    d="M40 24C40 24 36 32 28 32C28 32 24 28 24 24C24 20 28 16 28 16C36 16 40 24 40 24Z"
    stroke="#214A73"
    stroke-width="3"
    stroke-linecap="round"
    stroke-linejoin="round"
    fill="none"
  />
  <!-- Center circle -->
  <circle cx="24" cy="24" r="4" fill="#214A73" />
</svg>

